{"scene":0,"asset":{"generator":"ImageToStl.com","version":"2.0"},"scenes":[{"name":"Scene","nodes":[0]}],"nodes":[{"name":"Node0","children":[1]},{"name":"Node1","mesh":0,"children":[2,3]},{"name":"Node2","mesh":1},{"name":"Node3","mesh":2}],"materials":[{"name":"FFC2CEEC","pbrMetallicRoughness":{"baseColorFactor":[0.9254902,0.80784315,0.7607843,1.0],"metallicFactor":0.05,"roughnessFactor":0.5},"doubleSided":true},{"name":"FFA0A0A0","pbrMetallicRoughness":{"baseColorFactor":[0.627451,0.627451,0.627451,1.0],"metallicFactor":0.05,"roughnessFactor":0.5},"doubleSided":true},{"name":"FF000000","pbrMetallicRoughness":{"baseColorFactor":[0.0,0.0,0.0,1.0],"metallicFactor":0.05,"roughnessFactor":0.5},"doubleSided":true}],"meshes":[{"name":"Mesh0","primitives":[{"indices":1,"material":0,"attributes":{"POSITION":0}}]},{"name":"Mesh0","primitives":[{"indices":3,"material":1,"attributes":{"POSITION":2}}]},{"name":"Mesh0","primitives":[{"indices":5,"material":2,"attributes":{"POSITION":4}}]}],"accessors":[{"bufferView":0,"componentType":5126,"count":33803,"type":"VEC3","min":[8.257935,-9.722151,-2.0147102],"max":[16.212831,9.709865,17.98529]},{"bufferView":1,"componentType":5123,"count":202020,"type":"SCALAR"},{"bufferView":2,"componentType":5126,"count":13067,"type":"VEC3","min":[-37.85,-50.0,-34.7],"max":[37.85,50.0,10.097328]},{"bufferView":3,"componentType":5123,"count":78378,"type":"SCALAR"},{"bufferView":4,"componentType":5126,"count":21456,"type":"VEC3","min":[-14.25,-15.0,-2.0124292],"max":[14.227866,15.0,2.0]},{"bufferView":5,"componentType":5123,"count":128724,"type":"SCALAR"}],"bufferViews":[{"target":34962,"buffer":0,"byteLength":405636,"byteOffset":0},{"target":34963,"buffer":0,"byteLength":404040,"byteOffset":405636},{"target":34962,"buffer":0,"byteLength":156804,"byteOffset":809676},{"target":34963,"buffer":0,"byteLength":156756,"byteOffset":966480},{"target":34962,"buffer":0,"byteLength":257472,"byteOffset":1123236},{"target":34963,"buffer":0,"byteLength":257448,"byteOffset":1380708}],"buffers":[{"byteLength":1638156,"uri":"data:application/octet-stream;base64,"}]}