{"scene":0,"asset":{"generator":"ImageToStl.com","version":"2.0"},"scenes":[{"name":"Scene","nodes":[0]}],"nodes":[{"name":"Node0","children":[1]},{"name":"Node1","mesh":0}],"materials":[{"name":"FF595959","pbrMetallicRoughness":{"baseColorFactor":[0.34901962,0.34901962,0.34901962,1.0],"metallicFactor":0.05,"roughnessFactor":0.5},"doubleSided":true}],"meshes":[{"name":"Mesh0","primitives":[{"indices":1,"material":0,"attributes":{"POSITION":0}}]}],"accessors":[{"bufferView":0,"componentType":5126,"count":4626,"type":"VEC3","min":[327.05414,33.156513,-0.48117208],"max":[392.35403,75.5011,58.20049]},{"bufferView":1,"componentType":5123,"count":30306,"type":"SCALAR"}],"bufferViews":[{"target":34962,"buffer":0,"byteLength":55512,"byteOffset":0},{"target":34963,"buffer":0,"byteLength":60612,"byteOffset":55512}],"buffers":[{"byteLength":116124,"uri":"data:application/octet-stream;base64,"}]}