{"scene":0,"asset":{"generator":"ImageToStl.com","version":"2.0"},"scenes":[{"name":"Scene","nodes":[0]}],"nodes":[{"name":"Node0","children":[1]},{"name":"Node1","mesh":0,"children":[2]},{"name":"Node2","mesh":1}],"materials":[{"name":"FF217DA8","pbrMetallicRoughness":{"baseColorFactor":[0.65882355,0.49019608,0.12941177,1.0],"metallicFactor":0.05,"roughnessFactor":0.5},"doubleSided":true},{"name":"FFBFCCD1","pbrMetallicRoughness":{"baseColorFactor":[0.81960785,0.8,0.7490196,1.0],"metallicFactor":0.05,"roughnessFactor":0.5},"doubleSided":true}],"meshes":[{"name":"Mesh0","primitives":[{"indices":1,"material":0,"attributes":{"POSITION":0}}]},{"name":"Mesh0","primitives":[{"indices":3,"material":1,"attributes":{"POSITION":2}}]}],"accessors":[{"bufferView":0,"componentType":5126,"count":20980,"type":"VEC3","min":[-6.11,15.403109,-56.88096],"max":[13.89,35.396893,-4.0851]},{"bufferView":1,"componentType":5123,"count":125880,"type":"SCALAR"},{"bufferView":2,"componentType":5126,"count":3302,"type":"VEC3","min":[-33.159954,6.4,-18.95],"max":[42.540047,44.4,313.05]},{"bufferView":3,"componentType":5123,"count":19788,"type":"SCALAR"}],"bufferViews":[{"target":34962,"buffer":0,"byteLength":251760,"byteOffset":0},{"target":34963,"buffer":0,"byteLength":251760,"byteOffset":251760},{"target":34962,"buffer":0,"byteLength":39624,"byteOffset":503520},{"target":34963,"buffer":0,"byteLength":39576,"byteOffset":543144}],"buffers":[{"byteLength":582720,"uri":"data:application/octet-stream;base64,"}]}